<svg viewBox="0 0 24 24" fill="none" xmlns="http://www.w3.org/2000/svg">
<path fill-rule="evenodd" clip-rule="evenodd" d="M12 24C18.6274 24 24 18.6274 24 12C24 5.37259 18.6274 0 12 0C5.37256 0 0 5.37259 0 12C0 18.6274 5.37256 24 12 24ZM11.4059 12C11.4059 15.1855 12.8264 17 15.2029 17C17.5795 17 19 15.1855 19 12C19 8.82794 17.5659 7 15.2029 7C12.8264 7 11.4059 8.82794 11.4059 12ZM17.2108 12C17.2108 14.3387 16.4459 15.5349 15.2029 15.5349C13.96 15.5349 13.1951 14.3387 13.1951 12C13.1951 9.67474 13.9736 8.4516 15.2029 8.4516C16.4322 8.4516 17.2108 9.67474 17.2108 12ZM9.15222 16.8656V7.1344H7.44489L5 8.69354V10.293L7.30829 8.8414H7.36292V16.8656H9.15222Z" fill="currentColor"/>
</svg>
