<svg viewBox="0 0 24 24" fill="none" xmlns="http://www.w3.org/2000/svg">
<g clip-path="url(#clip0_1_66)">
<path d="M18.2649 4.88357L13.4456 3.15342C12.5782 2.88018 11.7108 2.97144 10.9398 3.42666C10.7471 3.60864 10.5541 3.79089 10.3614 3.97287H6.69883C5.15672 3.97287 4 5.15654 4 6.52246V17.4488C4 18.9057 5.25307 19.9981 6.69883 19.9981H10.3614C10.4578 20.1803 10.7471 20.3623 10.9398 20.5446C11.4218 20.8178 11.9999 20.9998 12.4819 20.9998C12.8675 20.9998 13.1566 20.9088 13.4456 20.8178L18.2649 19.0877C19.325 18.7234 19.9997 17.722 19.9997 16.7203V7.15966C19.9997 6.15797 19.2287 5.15654 18.2649 4.8833V4.88357ZM9.87939 18.5415H6.69883C6.12047 18.5415 5.54211 18.0862 5.54211 17.4488V6.52246C5.54211 5.885 6.02412 5.42978 6.69883 5.42978H9.87939V18.5412V18.5415Z" fill="currentColor"/>
</g>
<defs>
<clipPath id="clip0_1_66">
<rect width="16" height="18" fill="white" transform="translate(4 3)"/>
</clipPath>
</defs>
</svg>
