<svg width="135" height="32" viewBox="0 0 135 32" fill="none" xmlns="http://www.w3.org/2000/svg">
<g clip-path="url(#clip0_92_27)">
<path d="M26.58 10.56H5.42C2.42662 10.56 0 12.9866 0 15.98V26.58C0 29.5734 2.42662 32 5.42 32H26.58C29.5734 32 32 29.5734 32 26.58V15.98C32 12.9866 29.5734 10.56 26.58 10.56Z" fill="#FFDF80"/>
<path d="M28.16 10.56H3.84C1.71923 10.56 0 12.2792 0 14.4V22.88C0 25.0008 1.71923 26.72 3.84 26.72H28.16C30.2808 26.72 32 25.0008 32 22.88V14.4C32 12.2792 30.2808 10.56 28.16 10.56Z" fill="#F49453"/>
<path d="M28.16 12.48C29.22 12.48 30.08 13.34 30.08 14.4V28.16C30.08 29.22 29.22 30.08 28.16 30.08H3.84C2.78 30.08 1.92 29.22 1.92 28.16V14.4C1.92 13.34 2.78 12.48 3.84 12.48H28.16ZM28.16 10.56H3.84C1.72 10.56 0 12.28 0 14.4V28.16C0 30.28 1.72 32 3.84 32H28.16C30.28 32 32 30.28 32 28.16V14.4C32 12.28 30.28 10.56 28.16 10.56Z" fill="#121212"/>
<path d="M26.87 0H5.13C2.29678 0 0 2.29678 0 5.13V18.55C0 21.3832 2.29678 23.68 5.13 23.68H26.87C29.7032 23.68 32 21.3832 32 18.55V5.13C32 2.29678 29.7032 0 26.87 0Z" fill="#FF7417"/>
<path d="M6.17 12.62C9.5776 12.62 12.34 9.8576 12.34 6.45C12.34 3.0424 9.5776 0.279999 6.17 0.279999C2.7624 0.279999 0 3.0424 0 6.45C0 9.8576 2.7624 12.62 6.17 12.62Z" fill="#FDF6E9"/>
<path d="M19.92 8.75C20.9196 8.75 21.73 7.93964 21.73 6.94C21.73 5.94037 20.9196 5.13 19.92 5.13C18.9203 5.13 18.11 5.94037 18.11 6.94C18.11 7.93964 18.9203 8.75 19.92 8.75Z" fill="#FDF6E9"/>
<path d="M15.64 18.94C17.4681 18.94 18.95 17.4581 18.95 15.63C18.95 13.8019 17.4681 12.32 15.64 12.32C13.812 12.32 12.33 13.8019 12.33 15.63C12.33 17.4581 13.812 18.94 15.64 18.94Z" fill="#FDF6E9"/>
<path d="M32 9.75V18.01C31.3 18.42 30.49 18.65 29.62 18.65C26.99 18.65 24.86 16.52 24.86 13.89C24.86 11.26 26.99 9.12 29.62 9.12C30.49 9.12 31.3 9.35 32 9.76V9.75Z" fill="#FDF6E9"/>
<path d="M28.16 1.92C29.22 1.92 30.08 2.78 30.08 3.84V19.84C30.08 20.9 29.22 21.76 28.16 21.76H3.84C2.78 21.76 1.92 20.9 1.92 19.84V3.84C1.92 2.78 2.78 1.92 3.84 1.92H28.16ZM28.16 0H3.84C1.72 0 0 1.72 0 3.84V19.84C0 21.96 1.72 23.68 3.84 23.68H28.16C30.28 23.68 32 21.96 32 19.84V3.84C32 1.72 30.28 0 28.16 0Z" fill="#121212"/>
</g>
<path d="M40 10.3091C40.5821 10.1653 41.346 10.0124 42.2919 9.85062C43.256 9.6888 44.3655 9.60788 45.6206 9.60788C46.5301 9.60788 47.2941 9.73375 47.9125 9.98548C48.531 10.2192 49.0494 10.5698 49.4678 11.0373C49.5951 10.9474 49.7952 10.8216 50.068 10.6598C50.3409 10.4979 50.6774 10.3451 51.0776 10.2012C51.4777 10.0394 51.9234 9.90456 52.4145 9.79668C52.9056 9.67082 53.4331 9.60788 53.997 9.60788C55.0884 9.60788 55.9797 9.76971 56.6709 10.0934C57.3621 10.399 57.8987 10.8396 58.2807 11.4149C58.6809 11.9903 58.9446 12.6736 59.072 13.4647C59.2175 14.2559 59.2902 15.1189 59.2902 16.0539V23.9295H56.7528V16.5934C56.7528 15.7663 56.7073 15.056 56.6163 14.4627C56.5436 13.8693 56.389 13.3748 56.1525 12.9793C55.9342 12.5837 55.625 12.296 55.2248 12.1162C54.8428 11.9184 54.3426 11.8195 53.7242 11.8195C52.8693 11.8195 52.1599 11.9364 51.596 12.1701C51.0503 12.3859 50.6774 12.5837 50.4773 12.7635C50.6228 13.231 50.732 13.7434 50.8047 14.3008C50.8775 14.8582 50.9139 15.4426 50.9139 16.0539V23.9295H48.3764V16.5934C48.3764 15.7663 48.3309 15.056 48.24 14.4627C48.149 13.8693 47.9853 13.3748 47.7488 12.9793C47.5306 12.5837 47.2213 12.296 46.8212 12.1162C46.4392 11.9184 45.9481 11.8195 45.3478 11.8195C45.0931 11.8195 44.8203 11.8285 44.5292 11.8465C44.2382 11.8645 43.9563 11.8914 43.6834 11.9274C43.4288 11.9454 43.1923 11.9723 42.974 12.0083C42.7557 12.0443 42.6102 12.0712 42.5375 12.0892V23.9295H40V10.3091Z" fill="#FF7417"/>
<path d="M66.666 22.1224C67.2663 22.1224 67.7938 22.1134 68.2486 22.0954C68.7215 22.0595 69.1126 22.0055 69.4218 21.9336V17.7531C69.2399 17.6632 68.9398 17.5913 68.5214 17.5373C68.1212 17.4654 67.6301 17.4295 67.048 17.4295C66.666 17.4295 66.2568 17.4564 65.8202 17.5104C65.4019 17.5643 65.0108 17.6812 64.647 17.861C64.3014 18.0228 64.0103 18.2566 63.7739 18.5622C63.5374 18.8499 63.4192 19.2365 63.4192 19.722C63.4192 20.621 63.7102 21.2503 64.2923 21.61C64.8744 21.9516 65.6656 22.1224 66.666 22.1224ZM66.4478 9.55394C67.4664 9.55394 68.3213 9.6888 69.0125 9.95851C69.7219 10.2102 70.2858 10.5788 70.7042 11.0643C71.1407 11.5318 71.45 12.0982 71.6318 12.7635C71.8137 13.4108 71.9047 14.13 71.9047 14.9212V23.6867C71.6864 23.7227 71.3772 23.7766 70.977 23.8485C70.595 23.9025 70.1585 23.9564 69.6674 24.0104C69.1762 24.0643 68.6396 24.1093 68.0576 24.1452C67.4937 24.1992 66.9298 24.2261 66.3659 24.2261C65.5656 24.2261 64.8289 24.1452 64.1559 23.9834C63.4828 23.8216 62.9008 23.5698 62.4096 23.2282C61.9185 22.8686 61.5365 22.4011 61.2637 21.8257C60.9908 21.2503 60.8544 20.5581 60.8544 19.749C60.8544 18.9758 61.009 18.3105 61.3183 17.7531C61.6457 17.1957 62.0822 16.7462 62.6279 16.4046C63.1736 16.0629 63.8103 15.8112 64.5378 15.6494C65.2654 15.4876 66.0294 15.4066 66.8298 15.4066C67.0844 15.4066 67.3482 15.4246 67.621 15.4606C67.8939 15.4786 68.1485 15.5145 68.385 15.5685C68.6396 15.6044 68.8579 15.6404 69.0398 15.6763C69.2217 15.7123 69.349 15.7393 69.4218 15.7573V15.056C69.4218 14.6425 69.3763 14.2379 69.2854 13.8423C69.1944 13.4288 69.0307 13.0692 68.7942 12.7635C68.5578 12.4398 68.2304 12.1881 67.812 12.0083C67.4118 11.8105 66.8843 11.7116 66.2295 11.7116C65.3928 11.7116 64.6561 11.7746 64.0194 11.9004C63.401 12.0083 62.9371 12.1252 62.6279 12.251L62.3278 10.1743C62.6552 10.0304 63.2009 9.89557 63.9649 9.76971C64.7288 9.62586 65.5565 9.55394 66.4478 9.55394Z" fill="#FF7417"/>
<path d="M84.3318 16.944C84.3318 15.3077 83.9225 14.0491 83.104 13.168C82.2854 12.287 81.194 11.8465 79.8298 11.8465C79.0658 11.8465 78.4656 11.8734 78.029 11.9274C77.6107 11.9813 77.2742 12.0443 77.0195 12.1162V20.9627C77.3287 21.2144 77.7744 21.4571 78.3564 21.6909C78.9385 21.9246 79.5752 22.0415 80.2664 22.0415C80.994 22.0415 81.6124 21.9156 82.1217 21.6639C82.6492 21.3942 83.0767 21.0346 83.4041 20.5851C83.7315 20.1176 83.968 19.5781 84.1135 18.9668C84.259 18.3375 84.3318 17.6632 84.3318 16.944ZM86.9784 16.944C86.9784 18.0048 86.8329 18.9848 86.5418 19.8838C86.269 20.7828 85.8597 21.556 85.314 22.2033C84.7683 22.8506 84.0953 23.3541 83.295 23.7137C82.5128 24.0733 81.6124 24.2531 80.5938 24.2531C79.7752 24.2531 79.0477 24.1452 78.411 23.9295C77.7926 23.7137 77.3287 23.5069 77.0195 23.3091V28.9191H74.482V10.3361C75.0823 10.1923 75.8281 10.0394 76.7194 9.87759C77.6289 9.69779 78.6748 9.60788 79.8571 9.60788C80.9485 9.60788 81.9307 9.7787 82.8038 10.1203C83.677 10.462 84.4227 10.9474 85.0412 11.5768C85.6596 12.2061 86.1326 12.9793 86.46 13.8963C86.8056 14.7953 86.9784 15.8112 86.9784 16.944Z" fill="#FF7417"/>
<path d="M93.1684 24.1992C91.6041 24.1632 90.4945 23.8306 89.8397 23.2012C89.1848 22.5719 88.8574 21.592 88.8574 20.2614V3.43153L91.3949 3V19.8568C91.3949 20.2704 91.4313 20.612 91.504 20.8817C91.5768 21.1515 91.695 21.3672 91.8587 21.529C92.0224 21.6909 92.2407 21.8167 92.5136 21.9066C92.7864 21.9786 93.1229 22.0415 93.5231 22.0954L93.1684 24.1992Z" fill="#FF7417"/>
<path d="M93.9443 16.944C93.9443 15.7033 94.1262 14.6245 94.49 13.7075C94.8538 12.7725 95.3358 11.9993 95.9361 11.388C96.5363 10.7766 97.2275 10.3181 98.0097 10.0124C98.7919 9.70678 99.5922 9.55394 100.411 9.55394C102.321 9.55394 103.785 10.1473 104.804 11.334C105.822 12.5028 106.332 14.2918 106.332 16.7012C106.332 16.8091 106.332 16.953 106.332 17.1328C106.332 17.2946 106.322 17.4474 106.304 17.5913H96.5909C96.7 19.0477 97.1275 20.1535 97.8733 20.9087C98.6191 21.6639 99.7832 22.0415 101.366 22.0415C102.257 22.0415 103.003 21.9696 103.603 21.8257C104.222 21.6639 104.685 21.5111 104.995 21.3672L105.349 23.471C105.04 23.6328 104.494 23.8036 103.712 23.9834C102.948 24.1632 102.075 24.2531 101.093 24.2531C99.856 24.2531 98.7828 24.0733 97.8733 23.7137C96.982 23.3361 96.2453 22.8237 95.6632 22.1763C95.0812 21.529 94.6446 20.7649 94.3536 19.8838C94.0807 18.9848 93.9443 18.0048 93.9443 16.944ZM103.685 15.5685C103.703 14.4357 103.412 13.5097 102.812 12.7905C102.23 12.0533 101.42 11.6846 100.383 11.6846C99.8014 11.6846 99.283 11.8015 98.8282 12.0353C98.3917 12.251 98.0188 12.5387 97.7096 12.8983C97.4003 13.258 97.1548 13.6715 96.9729 14.139C96.8092 14.6065 96.7 15.083 96.6455 15.5685H103.685Z" fill="#FF7417"/>
<path d="M117.234 22.527C117.016 22.6708 116.589 22.8596 115.952 23.0934C115.333 23.3091 114.606 23.417 113.769 23.417C112.914 23.417 112.105 23.2822 111.341 23.0124C110.595 22.7427 109.94 22.3292 109.376 21.7718C108.812 21.1964 108.367 20.4862 108.039 19.6411C107.712 18.796 107.548 17.7891 107.548 16.6203C107.548 15.5954 107.703 14.6604 108.012 13.8154C108.321 12.9523 108.767 12.2151 109.349 11.6037C109.949 10.9744 110.677 10.4889 111.532 10.1473C112.387 9.78769 113.351 9.60788 114.424 9.60788C115.606 9.60788 116.634 9.69779 117.507 9.87759C118.398 10.0394 119.144 10.1923 119.744 10.3361V22.8506C119.744 25.0083 119.181 26.5726 118.053 27.5436C116.925 28.5145 115.215 29 112.923 29C112.032 29 111.186 28.9281 110.386 28.7842C109.604 28.6404 108.922 28.4696 108.339 28.2718L108.803 26.0871C109.313 26.2849 109.931 26.4557 110.659 26.5996C111.404 26.7614 112.178 26.8423 112.978 26.8423C114.488 26.8423 115.57 26.5456 116.225 25.9523C116.898 25.3589 117.234 24.4149 117.234 23.1203V22.527ZM117.207 12.1162C116.952 12.0443 116.607 11.9813 116.17 11.9274C115.752 11.8555 115.179 11.8195 114.451 11.8195C113.087 11.8195 112.032 12.26 111.286 13.1411C110.559 14.0221 110.195 15.1909 110.195 16.6473C110.195 17.4564 110.295 18.1487 110.495 18.7241C110.713 19.2994 110.995 19.7759 111.341 20.1535C111.705 20.5311 112.114 20.8098 112.569 20.9896C113.042 21.1694 113.524 21.2593 114.015 21.2593C114.688 21.2593 115.306 21.1694 115.87 20.9896C116.434 20.7918 116.88 20.5671 117.207 20.3154V12.1162Z" fill="#FF7417"/>
<path d="M135 16.917C135 18.0318 134.836 19.0387 134.509 19.9378C134.181 20.8368 133.718 21.61 133.117 22.2573C132.535 22.9046 131.835 23.408 131.016 23.7676C130.198 24.1093 129.307 24.2801 128.343 24.2801C127.378 24.2801 126.487 24.1093 125.669 23.7676C124.85 23.408 124.141 22.9046 123.54 22.2573C122.958 21.61 122.504 20.8368 122.176 19.9378C121.849 19.0387 121.685 18.0318 121.685 16.917C121.685 15.8202 121.849 14.8223 122.176 13.9232C122.504 13.0062 122.958 12.2241 123.54 11.5768C124.141 10.9295 124.85 10.435 125.669 10.0934C126.487 9.73375 127.378 9.55394 128.343 9.55394C129.307 9.55394 130.198 9.73375 131.016 10.0934C131.835 10.435 132.535 10.9295 133.117 11.5768C133.718 12.2241 134.181 13.0062 134.509 13.9232C134.836 14.8223 135 15.8202 135 16.917ZM132.353 16.917C132.353 15.3347 131.99 14.0851 131.262 13.168C130.553 12.2331 129.579 11.7656 128.343 11.7656C127.106 11.7656 126.123 12.2331 125.396 13.168C124.686 14.0851 124.332 15.3347 124.332 16.917C124.332 18.4993 124.686 19.758 125.396 20.6929C126.123 21.61 127.106 22.0685 128.343 22.0685C129.579 22.0685 130.553 21.61 131.262 20.6929C131.99 19.758 132.353 18.4993 132.353 16.917Z" fill="#FF7417"/>
<defs>
<clipPath id="clip0_92_27">
<rect width="32" height="32" fill="white"/>
</clipPath>
</defs>
</svg>
