<svg viewBox="0 0 95 26" fill="none" xmlns="http://www.w3.org/2000/svg">
<path d="M0 7.30913C0.582072 7.16528 1.34604 7.01245 2.29191 6.85062C3.25597 6.6888 4.36554 6.60788 5.62064 6.60788C6.53012 6.60788 7.29409 6.73375 7.91254 6.98548C8.531 7.21923 9.04941 7.56985 9.46777 8.03734C9.5951 7.94744 9.79519 7.82158 10.068 7.65975C10.3409 7.49792 10.6774 7.34509 11.0776 7.20124C11.4777 7.03942 11.9234 6.90456 12.4145 6.79668C12.9056 6.67082 13.4331 6.60788 13.997 6.60788C15.0884 6.60788 15.9797 6.76971 16.6709 7.09336C17.3621 7.39903 17.8987 7.83956 18.2807 8.41494C18.6809 8.99032 18.9446 9.67358 19.072 10.4647C19.2175 11.2559 19.2902 12.1189 19.2902 13.0539V20.9295H16.7528V13.5934C16.7528 12.7663 16.7073 12.056 16.6163 11.4627C16.5436 10.8693 16.389 10.3748 16.1525 9.97925C15.9342 9.58368 15.625 9.29599 15.2248 9.11618C14.8428 8.91839 14.3426 8.8195 13.7242 8.8195C12.8693 8.8195 12.1599 8.93638 11.596 9.17012C11.0503 9.38589 10.6774 9.58368 10.4773 9.76348C10.6228 10.231 10.732 10.7434 10.8047 11.3008C10.8775 11.8582 10.9139 12.4426 10.9139 13.0539V20.9295H8.37638V13.5934C8.37638 12.7663 8.33091 12.056 8.23996 11.4627C8.14901 10.8693 7.9853 10.3748 7.74884 9.97925C7.53056 9.58368 7.22133 9.29599 6.82116 9.11618C6.43917 8.91839 5.94805 8.8195 5.34779 8.8195C5.09313 8.8195 4.82029 8.82849 4.52925 8.84647C4.23821 8.86445 3.95627 8.89142 3.68343 8.92739C3.42877 8.94537 3.1923 8.97234 2.97403 9.0083C2.75575 9.04426 2.61023 9.07123 2.53747 9.08921V20.9295H0V7.30913Z" fill="#999999"/>
<path d="M26.666 19.1224C27.2663 19.1224 27.7938 19.1134 28.2486 19.0954C28.7215 19.0595 29.1126 19.0055 29.4218 18.9336V14.7531C29.2399 14.6632 28.9398 14.5913 28.5214 14.5373C28.1212 14.4654 27.6301 14.4295 27.048 14.4295C26.666 14.4295 26.2568 14.4564 25.8202 14.5104C25.4019 14.5643 25.0108 14.6812 24.647 14.861C24.3014 15.0228 24.0103 15.2566 23.7739 15.5622C23.5374 15.8499 23.4192 16.2365 23.4192 16.722C23.4192 17.621 23.7102 18.2503 24.2923 18.61C24.8744 18.9516 25.6656 19.1224 26.666 19.1224ZM26.4478 6.55394C27.4664 6.55394 28.3213 6.6888 29.0125 6.95851C29.7219 7.21023 30.2858 7.57884 30.7042 8.06431C31.1407 8.53181 31.45 9.0982 31.6318 9.76348C31.8137 10.4108 31.9047 11.13 31.9047 11.9212V20.6867C31.6864 20.7227 31.3772 20.7766 30.977 20.8485C30.595 20.9025 30.1585 20.9564 29.6674 21.0104C29.1762 21.0643 28.6396 21.1093 28.0576 21.1452C27.4937 21.1992 26.9298 21.2261 26.3659 21.2261C25.5656 21.2261 24.8289 21.1452 24.1559 20.9834C23.4828 20.8216 22.9008 20.5698 22.4096 20.2282C21.9185 19.8686 21.5365 19.4011 21.2637 18.8257C20.9908 18.2503 20.8544 17.5581 20.8544 16.749C20.8544 15.9758 21.009 15.3105 21.3183 14.7531C21.6457 14.1957 22.0822 13.7462 22.6279 13.4046C23.1736 13.0629 23.8103 12.8112 24.5378 12.6494C25.2654 12.4876 26.0294 12.4066 26.8298 12.4066C27.0844 12.4066 27.3482 12.4246 27.621 12.4606C27.8939 12.4786 28.1485 12.5145 28.385 12.5685C28.6396 12.6044 28.8579 12.6404 29.0398 12.6763C29.2217 12.7123 29.349 12.7393 29.4218 12.7573V12.056C29.4218 11.6425 29.3763 11.2379 29.2854 10.8423C29.1944 10.4288 29.0307 10.0692 28.7942 9.76348C28.5578 9.43983 28.2304 9.18811 27.812 9.0083C27.4118 8.81051 26.8843 8.71162 26.2295 8.71162C25.3928 8.71162 24.6561 8.77455 24.0194 8.90042C23.401 9.0083 22.9371 9.12517 22.6279 9.25104L22.3278 7.17427C22.6552 7.03043 23.2009 6.89557 23.9649 6.76971C24.7288 6.62586 25.5565 6.55394 26.4478 6.55394Z" fill="#999999"/>
<path d="M44.3318 13.944C44.3318 12.3077 43.9225 11.0491 43.104 10.168C42.2854 9.287 41.194 8.84647 39.8298 8.84647C39.0658 8.84647 38.4656 8.87344 38.029 8.92739C37.6107 8.98133 37.2742 9.04426 37.0195 9.11618V17.9627C37.3287 18.2144 37.7744 18.4571 38.3564 18.6909C38.9385 18.9246 39.5752 19.0415 40.2664 19.0415C40.994 19.0415 41.6124 18.9156 42.1217 18.6639C42.6492 18.3942 43.0767 18.0346 43.4041 17.5851C43.7315 17.1176 43.968 16.5781 44.1135 15.9668C44.259 15.3375 44.3318 14.6632 44.3318 13.944ZM46.9784 13.944C46.9784 15.0048 46.8329 15.9848 46.5418 16.8838C46.269 17.7828 45.8597 18.556 45.314 19.2033C44.7683 19.8506 44.0953 20.3541 43.295 20.7137C42.5128 21.0733 41.6124 21.2531 40.5938 21.2531C39.7752 21.2531 39.0477 21.1452 38.411 20.9295C37.7926 20.7137 37.3287 20.5069 37.0195 20.3091V25.9191H34.482V7.3361C35.0823 7.19225 35.8281 7.03942 36.7194 6.87759C37.6289 6.69779 38.6748 6.60788 39.8571 6.60788C40.9485 6.60788 41.9307 6.7787 42.8038 7.12033C43.677 7.46196 44.4227 7.94744 45.0412 8.57676C45.6596 9.20609 46.1326 9.97925 46.46 10.8963C46.8056 11.7953 46.9784 12.8112 46.9784 13.944Z" fill="#999999"/>
<path d="M53.1684 21.1992C51.6041 21.1632 50.4945 20.8306 49.8397 20.2012C49.1848 19.5719 48.8574 18.592 48.8574 17.2614V0.431535L51.3949 0V16.8568C51.3949 17.2704 51.4313 17.612 51.504 17.8817C51.5768 18.1515 51.695 18.3672 51.8587 18.529C52.0224 18.6909 52.2407 18.8167 52.5136 18.9066C52.7864 18.9786 53.1229 19.0415 53.5231 19.0954L53.1684 21.1992Z" fill="#999999"/>
<path d="M53.9443 13.944C53.9443 12.7033 54.1262 11.6245 54.49 10.7075C54.8538 9.77247 55.3358 8.99931 55.9361 8.38797C56.5363 7.77662 57.2275 7.31812 58.0097 7.01245C58.7919 6.70678 59.5922 6.55394 60.4108 6.55394C62.3207 6.55394 63.785 7.1473 64.8036 8.33402C65.8222 9.50277 66.3315 11.2918 66.3315 13.7012C66.3315 13.8091 66.3315 13.953 66.3315 14.1328C66.3315 14.2946 66.3224 14.4474 66.3042 14.5913H56.5909C56.7 16.0477 57.1275 17.1535 57.8733 17.9087C58.6191 18.6639 59.7832 19.0415 61.3657 19.0415C62.257 19.0415 63.0028 18.9696 63.6031 18.8257C64.2215 18.6639 64.6853 18.5111 64.9946 18.3672L65.3493 20.471C65.04 20.6328 64.4943 20.8036 63.7122 20.9834C62.9482 21.1632 62.0751 21.2531 61.0929 21.2531C59.856 21.2531 58.7828 21.0733 57.8733 20.7137C56.982 20.3361 56.2453 19.8237 55.6632 19.1763C55.0812 18.529 54.6446 17.7649 54.3536 16.8838C54.0807 15.9848 53.9443 15.0048 53.9443 13.944ZM63.6849 12.5685C63.7031 11.4357 63.4121 10.5097 62.8118 9.79046C62.2297 9.05325 61.4203 8.68465 60.3835 8.68465C59.8014 8.68465 59.283 8.80152 58.8282 9.03527C58.3917 9.25104 58.0188 9.53873 57.7096 9.89834C57.4003 10.258 57.1548 10.6715 56.9729 11.139C56.8092 11.6065 56.7 12.083 56.6455 12.5685H63.6849Z" fill="#999999"/>
<path d="M77.2343 19.527C77.016 19.6708 76.5886 19.8596 75.9519 20.0934C75.3335 20.3091 74.6059 20.417 73.7691 20.417C72.9142 20.417 72.1048 20.2822 71.3408 20.0124C70.595 19.7427 69.9402 19.3292 69.3763 18.7718C68.8124 18.1964 68.3668 17.4862 68.0394 16.6411C67.7119 15.796 67.5482 14.7891 67.5482 13.6203C67.5482 12.5954 67.7028 11.6604 68.0121 10.8154C68.3213 9.95228 68.7669 9.21508 69.349 8.60373C69.9493 7.97441 70.6769 7.48893 71.5318 7.1473C72.3867 6.78769 73.3508 6.60788 74.424 6.60788C75.6063 6.60788 76.634 6.69779 77.5071 6.87759C78.3984 7.03942 79.1442 7.19225 79.7445 7.3361V19.8506C79.7445 22.0083 79.1806 23.5726 78.0528 24.5436C76.9251 25.5145 75.2152 26 72.9233 26C72.032 26 71.1862 25.9281 70.3858 25.7842C69.6037 25.6404 68.9216 25.4696 68.3395 25.2718L68.8033 23.0871C69.3126 23.2849 69.9311 23.4557 70.6587 23.5996C71.4045 23.7614 72.1775 23.8423 72.9779 23.8423C74.4876 23.8423 75.5699 23.5456 76.2248 22.9523C76.8978 22.3589 77.2343 21.4149 77.2343 20.1203V19.527ZM77.207 9.11618C76.9523 9.04426 76.6067 8.98133 76.1702 8.92739C75.7518 8.85546 75.1788 8.8195 74.4513 8.8195C73.087 8.8195 72.032 9.26003 71.2862 10.1411C70.5586 11.0221 70.1948 12.1909 70.1948 13.6473C70.1948 14.4564 70.2949 15.1487 70.495 15.7241C70.7133 16.2994 70.9952 16.7759 71.3408 17.1535C71.7046 17.5311 72.1139 17.8098 72.5686 17.9896C73.0415 18.1694 73.5236 18.2593 74.0147 18.2593C74.6877 18.2593 75.3062 18.1694 75.8701 17.9896C76.4339 17.7918 76.8796 17.5671 77.207 17.3154V9.11618Z" fill="#999999"/>
<path d="M95 13.917C95 15.0318 94.8363 16.0387 94.5089 16.9378C94.1815 17.8368 93.7176 18.61 93.1174 19.2573C92.5353 19.9046 91.835 20.408 91.0164 20.7676C90.1979 21.1093 89.3066 21.2801 88.3425 21.2801C87.3785 21.2801 86.4872 21.1093 85.6687 20.7676C84.8501 20.408 84.1407 19.9046 83.5404 19.2573C82.9584 18.61 82.5036 17.8368 82.1762 16.9378C81.8488 16.0387 81.6851 15.0318 81.6851 13.917C81.6851 12.8202 81.8488 11.8223 82.1762 10.9232C82.5036 10.0062 82.9584 9.22407 83.5404 8.57676C84.1407 7.92946 84.8501 7.43499 85.6687 7.09336C86.4872 6.73375 87.3785 6.55394 88.3425 6.55394C89.3066 6.55394 90.1979 6.73375 91.0164 7.09336C91.835 7.43499 92.5353 7.92946 93.1174 8.57676C93.7176 9.22407 94.1815 10.0062 94.5089 10.9232C94.8363 11.8223 95 12.8202 95 13.917ZM92.3534 13.917C92.3534 12.3347 91.9896 11.0851 91.262 10.168C90.5526 9.23306 89.5795 8.76556 88.3425 8.76556C87.1056 8.76556 86.1234 9.23306 85.3958 10.168C84.6864 11.0851 84.3317 12.3347 84.3317 13.917C84.3317 15.4993 84.6864 16.758 85.3958 17.6929C86.1234 18.61 87.1056 19.0685 88.3425 19.0685C89.5795 19.0685 90.5526 18.61 91.262 17.6929C91.9896 16.758 92.3534 15.4993 92.3534 13.917Z" fill="#999999"/>
</svg>
