<svg width="52" height="52" viewBox="0 0 32 32" fill="none" xmlns="http://www.w3.org/2000/svg">
<g clip-path="url(#clip0_22_32)">
<path d="M26.58 10.56H5.42C2.42662 10.56 0 12.9866 0 15.98V26.58C0 29.5734 2.42662 32 5.42 32H26.58C29.5734 32 32 29.5734 32 26.58V15.98C32 12.9866 29.5734 10.56 26.58 10.56Z" fill="#FFDF80"/>
<path d="M28.16 10.56H3.84C1.71923 10.56 0 12.2792 0 14.4V22.88C0 25.0008 1.71923 26.72 3.84 26.72H28.16C30.2808 26.72 32 25.0008 32 22.88V14.4C32 12.2792 30.2808 10.56 28.16 10.56Z" fill="#F49453"/>
<path d="M28.16 12.48C29.22 12.48 30.08 13.34 30.08 14.4V28.16C30.08 29.22 29.22 30.08 28.16 30.08H3.84C2.78 30.08 1.92 29.22 1.92 28.16V14.4C1.92 13.34 2.78 12.48 3.84 12.48H28.16ZM28.16 10.56H3.84C1.72 10.56 0 12.28 0 14.4V28.16C0 30.28 1.72 32 3.84 32H28.16C30.28 32 32 30.28 32 28.16V14.4C32 12.28 30.28 10.56 28.16 10.56Z" fill="#1E1E1E"/>
<path d="M26.87 0H5.13C2.29678 0 0 2.29678 0 5.13V18.55C0 21.3832 2.29678 23.68 5.13 23.68H26.87C29.7032 23.68 32 21.3832 32 18.55V5.13C32 2.29678 29.7032 0 26.87 0Z" fill="#F7863E"/>
<path d="M6.17 12.62C9.5776 12.62 12.34 9.8576 12.34 6.45C12.34 3.0424 9.5776 0.279999 6.17 0.279999C2.7624 0.279999 0 3.0424 0 6.45C0 9.8576 2.7624 12.62 6.17 12.62Z" fill="#FDF6E9"/>
<path d="M19.92 8.75C20.9196 8.75 21.73 7.93964 21.73 6.94C21.73 5.94037 20.9196 5.13 19.92 5.13C18.9203 5.13 18.11 5.94037 18.11 6.94C18.11 7.93964 18.9203 8.75 19.92 8.75Z" fill="#FDF6E9"/>
<path d="M15.64 18.94C17.4681 18.94 18.95 17.4581 18.95 15.63C18.95 13.8019 17.4681 12.32 15.64 12.32C13.812 12.32 12.33 13.8019 12.33 15.63C12.33 17.4581 13.812 18.94 15.64 18.94Z" fill="#FDF6E9"/>
<path d="M32 9.75V18.01C31.3 18.42 30.49 18.65 29.62 18.65C26.99 18.65 24.86 16.52 24.86 13.89C24.86 11.26 26.99 9.12 29.62 9.12C30.49 9.12 31.3 9.35 32 9.76V9.75Z" fill="#FDF6E9"/>
<path d="M28.16 1.92C29.22 1.92 30.08 2.78 30.08 3.84V19.84C30.08 20.9 29.22 21.76 28.16 21.76H3.84C2.78 21.76 1.92 20.9 1.92 19.84V3.84C1.92 2.78 2.78 1.92 3.84 1.92H28.16ZM28.16 0H3.84C1.72 0 0 1.72 0 3.84V19.84C0 21.96 1.72 23.68 3.84 23.68H28.16C30.28 23.68 32 21.96 32 19.84V3.84C32 1.72 30.28 0 28.16 0Z" fill="#1E1E1E"/>
</g>
<defs>
<clipPath id="clip0_22_32">
<rect width="32" height="32" fill="white"/>
</clipPath>
</defs>
</svg>
