<svg width="100" height="32" viewBox="0 0 100 32" fill="none" xmlns="http://www.w3.org/2000/svg">
<g clip-path="url(#clip0_3_221)">
<path d="M42.44 8.48V10.04C43.4 8.79 44.59 8.16 46 8.16C46.85 8.16 47.64 8.35 48.36 8.74C49.08 9.13 49.67 9.67 50.12 10.36C50.65 9.72 51.29 9.19 52.02 8.78C52.75 8.37 53.51 8.16 54.28 8.16C56.2 8.16 57.57 8.69 58.38 9.76C59.19 10.83 59.6 12.41 59.6 14.52V29.6H54.96V14.56C54.96 13.84 54.78 13.29 54.42 12.9C54.06 12.51 53.6 12.32 53.04 12.32C52.48 12.32 52.02 12.51 51.66 12.9C51.3 13.29 51.12 13.84 51.12 14.56V29.6H46.48V14.56C46.48 13.84 46.3 13.29 45.94 12.9C45.58 12.51 45.12 12.32 44.56 12.32C44 12.32 43.51 12.51 43.16 12.9C42.81 13.29 42.64 13.84 42.64 14.56V29.6H38V8.48H42.44Z" fill="#55292A"/>
<path d="M62.4399 23.52V23.28H66.9199V23.52C66.9199 24.32 67.1199 24.94 67.5199 25.38C67.9199 25.82 68.4799 26.04 69.1999 26.04C69.9199 26.04 70.4199 25.85 70.7799 25.46C71.1399 25.07 71.3199 24.51 71.3199 23.76C71.3199 23.2 71.1499 22.71 70.8199 22.3C70.4899 21.89 69.9599 21.52 69.2399 21.2L66.8399 20.16C65.2099 19.47 64.0899 18.65 63.4799 17.72C62.8699 16.79 62.5599 15.61 62.5599 14.2C62.5599 12.47 63.1599 11.03 64.3599 9.88C65.5599 8.73 67.1299 8.16 69.0799 8.16C71.0299 8.16 72.5999 8.73 73.7999 9.88C74.9999 11.03 75.5999 12.52 75.5999 14.36V14.76H71.1199V14.52C71.1199 13.69 70.9299 13.07 70.5599 12.64C70.1899 12.21 69.6799 12 69.0399 12C68.3999 12 67.9399 12.17 67.5799 12.52C67.2199 12.87 67.0399 13.36 67.0399 14C67.0399 14.56 67.1699 15.03 67.4399 15.4C67.7099 15.77 68.2099 16.12 68.9599 16.44L71.5599 17.56C73.0799 18.23 74.1699 19.03 74.8399 19.98C75.5099 20.93 75.8399 22.16 75.8399 23.68C75.8399 25.52 75.2299 27.02 74.0199 28.18C72.8099 29.34 71.1699 29.92 69.1199 29.92C67.0699 29.92 65.4399 29.35 64.2399 28.22C63.0399 27.09 62.4399 25.52 62.4399 23.52Z" fill="#55292A"/>
<path d="M83.36 2V5.88H78.72V2H83.36ZM83.36 8.48V29.6H78.72V8.48H83.36Z" fill="#55292A"/>
<path d="M91.2401 8.48V10.04C92.2301 8.79 93.4 8.16 94.76 8.16C98.2 8.16 99.92 10.28 99.92 14.52V29.6H95.28V14.56C95.28 13.84 95.1001 13.29 94.7401 12.9C94.3801 12.51 93.9201 12.32 93.3601 12.32C92.8001 12.32 92.31 12.51 91.96 12.9C91.61 13.29 91.44 13.84 91.44 14.56V29.6H86.8V8.48H91.2401Z" fill="#55292A"/>
</g>
<g clip-path="url(#clip1_3_221)">
<path d="M26.58 10.56H5.42C2.42662 10.56 0 12.9866 0 15.98V26.58C0 29.5734 2.42662 32 5.42 32H26.58C29.5734 32 32 29.5734 32 26.58V15.98C32 12.9866 29.5734 10.56 26.58 10.56Z" fill="#FFDF80"/>
<path d="M28.16 10.56H3.84C1.71923 10.56 0 12.2792 0 14.4V22.88C0 25.0008 1.71923 26.72 3.84 26.72H28.16C30.2808 26.72 32 25.0008 32 22.88V14.4C32 12.2792 30.2808 10.56 28.16 10.56Z" fill="#F49453"/>
<path d="M28.16 12.48C29.22 12.48 30.08 13.34 30.08 14.4V28.16C30.08 29.22 29.22 30.08 28.16 30.08H3.84C2.78 30.08 1.92 29.22 1.92 28.16V14.4C1.92 13.34 2.78 12.48 3.84 12.48H28.16ZM28.16 10.56H3.84C1.72 10.56 0 12.28 0 14.4V28.16C0 30.28 1.72 32 3.84 32H28.16C30.28 32 32 30.28 32 28.16V14.4C32 12.28 30.28 10.56 28.16 10.56Z" fill="#55292A"/>
<path d="M26.87 0H5.13C2.29678 0 0 2.29678 0 5.13V18.55C0 21.3832 2.29678 23.68 5.13 23.68H26.87C29.7032 23.68 32 21.3832 32 18.55V5.13C32 2.29678 29.7032 0 26.87 0Z" fill="#FF7417"/>
<path d="M6.17 12.62C9.5776 12.62 12.34 9.8576 12.34 6.45C12.34 3.0424 9.5776 0.279999 6.17 0.279999C2.7624 0.279999 0 3.0424 0 6.45C0 9.8576 2.7624 12.62 6.17 12.62Z" fill="#FDF6E9"/>
<path d="M19.92 8.75C20.9196 8.75 21.73 7.93964 21.73 6.94C21.73 5.94037 20.9196 5.13 19.92 5.13C18.9203 5.13 18.11 5.94037 18.11 6.94C18.11 7.93964 18.9203 8.75 19.92 8.75Z" fill="#FDF6E9"/>
<path d="M15.64 18.94C17.468 18.94 18.95 17.4581 18.95 15.63C18.95 13.8019 17.468 12.32 15.64 12.32C13.8119 12.32 12.33 13.8019 12.33 15.63C12.33 17.4581 13.8119 18.94 15.64 18.94Z" fill="#FDF6E9"/>
<path d="M32 9.75V18.01C31.3 18.42 30.49 18.65 29.62 18.65C26.99 18.65 24.86 16.52 24.86 13.89C24.86 11.26 26.99 9.12 29.62 9.12C30.49 9.12 31.3 9.35 32 9.76V9.75Z" fill="#FDF6E9"/>
<path d="M28.16 1.92C29.22 1.92 30.08 2.78 30.08 3.84V19.84C30.08 20.9 29.22 21.76 28.16 21.76H3.84C2.78 21.76 1.92 20.9 1.92 19.84V3.84C1.92 2.78 2.78 1.92 3.84 1.92H28.16ZM28.16 0H3.84C1.72 0 0 1.72 0 3.84V19.84C0 21.96 1.72 23.68 3.84 23.68H28.16C30.28 23.68 32 21.96 32 19.84V3.84C32 1.72 30.28 0 28.16 0Z" fill="#55292A"/>
</g>
<defs>
<clipPath id="clip0_3_221">
<rect width="61.92" height="27.92" fill="white" transform="translate(38 2)"/>
</clipPath>
<clipPath id="clip1_3_221">
<rect width="32" height="32" fill="white"/>
</clipPath>
</defs>
</svg>
