<svg viewBox="0 0 24 24" fill="none" xmlns="http://www.w3.org/2000/svg">
<path d="M3.04802 6.73385C3.12916 6.30787 3.31037 5.91805 3.56344 5.59602C3.6168 5.52585 3.67256 5.46302 3.73298 5.40018C4.18136 4.93052 4.81068 4.63754 5.49817 4.63754H18.5034C19.1909 4.63754 19.8179 4.93052 20.2684 5.40018C20.3287 5.46302 20.3845 5.52585 20.438 5.59602C20.6912 5.91802 20.8724 6.30787 20.9513 6.73385C20.9837 6.89826 21 7.06816 21 7.23993V16.7603C21 17.1256 20.9257 17.4766 20.7932 17.7937C20.6702 18.0963 20.489 18.3702 20.2685 18.5998C20.2126 18.6579 20.1571 18.7114 20.0965 18.7645C19.6646 19.1373 19.1071 19.3625 18.5034 19.3625H5.49817C4.89424 19.3625 4.33431 19.1373 3.90492 18.7621C3.84452 18.7114 3.78874 18.6579 3.73298 18.5998C3.51257 18.3702 3.33136 18.0963 3.2059 17.7937V17.7913C3.0734 17.4743 3.00159 17.1256 3.00159 16.7604V7.23993C3.00155 7.06816 3.01762 6.89826 3.04802 6.73385ZM19.3651 6.34165C19.142 6.10943 18.8425 5.96884 18.5034 5.96884H5.49817C5.15908 5.96884 4.8569 6.10943 4.63649 6.34165C4.59705 6.38302 4.55989 6.42911 4.5271 6.47491L11.3435 12.667C11.5315 12.8387 11.7638 12.9235 12.0008 12.9235C12.2354 12.9235 12.4675 12.8387 12.658 12.667L19.4718 6.47228C19.4417 6.42648 19.4045 6.38302 19.3651 6.34165ZM19.7227 16.7603V7.84992L14.7899 12.3353L19.7202 16.8158C19.7227 16.7988 19.7227 16.7797 19.7227 16.7603ZM5.49817 18.0309H18.5034C18.7242 18.0309 18.9308 17.9704 19.1071 17.8641L13.9052 13.139L13.4196 13.5793C13.0132 13.9474 12.5046 14.1339 12.0008 14.1339C11.4944 14.1339 10.9858 13.9474 10.5795 13.5793L10.0941 13.139L4.8942 17.8641C5.07078 17.9704 5.27737 18.0309 5.49817 18.0309ZM4.27881 16.7603C4.27881 16.7797 4.27881 16.7988 4.2812 16.8158L9.21151 12.3379L4.27881 7.8523V16.7603Z" fill="currentColor"/>
</svg>
