<svg viewBox="0 0 24 24" fill="none" xmlns="http://www.w3.org/2000/svg">
<path fill-rule="evenodd" clip-rule="evenodd" d="M7.65909 6.54545C7.65909 4.58516 9.20789 3 11.1136 3H12.8864C14.7922 3 16.3409 4.58517 16.3409 6.54545V8.54904C17.8641 8.91756 19 10.3212 19 12V17.4545C19 19.4149 17.4512 21 15.5455 21H8.45455C6.54881 21 5 19.4149 5 17.4545V12C5 10.3212 6.13589 8.91757 7.65909 8.54904V6.54545ZM9.25 8.45455H14.75V6.54545C14.75 5.49329 13.9178 4.63636 12.8864 4.63636H11.1136C10.0822 4.63636 9.25 5.4933 9.25 6.54545V8.45455ZM8.45455 10.0909C7.42314 10.0909 6.59091 10.9478 6.59091 12V17.4545C6.59091 18.5067 7.42314 19.3636 8.45455 19.3636H15.5455C16.5769 19.3636 17.4091 18.5068 17.4091 17.4545V12C17.4091 10.9478 16.5769 10.0909 15.5455 10.0909H8.45455ZM10.3182 13.8182C10.3182 12.862 11.0733 12.0909 12 12.0909C12.9267 12.0909 13.6818 12.862 13.6818 13.8182C13.6818 14.4777 13.3225 15.0492 12.7955 15.3403V16.5455C12.7955 16.9973 12.4393 17.3636 12 17.3636C11.5607 17.3636 11.2045 16.9973 11.2045 16.5455V15.3403C10.6775 15.0492 10.3182 14.4777 10.3182 13.8182Z" fill="currentColor"/>
</svg>
