<svg width="136" height="48" viewBox="0 0 136 48" fill="none" xmlns="http://www.w3.org/2000/svg">
<g clip-path="url(#clip0_8_488)">
<path d="M83.87 15.84H52.13C47.6399 15.84 44 19.48 44 23.97V39.87C44 44.3601 47.6399 48 52.13 48H83.87C88.3601 48 92 44.3601 92 39.87V23.97C92 19.48 88.3601 15.84 83.87 15.84Z" fill="#FFDF80"/>
<path d="M86.24 15.84H49.76C46.5788 15.84 44 18.4189 44 21.6V34.32C44 37.5012 46.5788 40.08 49.76 40.08H86.24C89.4212 40.08 92 37.5012 92 34.32V21.6C92 18.4189 89.4212 15.84 86.24 15.84Z" fill="#F49453"/>
<path d="M86.24 18.72C87.83 18.72 89.12 20.01 89.12 21.6V42.24C89.12 43.83 87.83 45.12 86.24 45.12H49.76C48.17 45.12 46.88 43.83 46.88 42.24V21.6C46.88 20.01 48.17 18.72 49.76 18.72H86.24ZM86.24 15.84H49.76C46.58 15.84 44 18.42 44 21.6V42.24C44 45.42 46.58 48 49.76 48H86.24C89.42 48 92 45.42 92 42.24V21.6C92 18.42 89.42 15.84 86.24 15.84Z" fill="#121212"/>
<path d="M84.305 0H51.695C47.4452 0 44 3.44517 44 7.695V27.825C44 32.0748 47.4452 35.52 51.695 35.52H84.305C88.5548 35.52 92 32.0748 92 27.825V7.695C92 3.44517 88.5548 0 84.305 0Z" fill="#FF7417"/>
<path d="M53.255 18.93C58.3664 18.93 62.51 14.7864 62.51 9.67498C62.51 4.56359 58.3664 0.419983 53.255 0.419983C48.1436 0.419983 44 4.56359 44 9.67498C44 14.7864 48.1436 18.93 53.255 18.93Z" fill="#FDF6E9"/>
<path d="M73.88 13.125C75.3795 13.125 76.595 11.9095 76.595 10.41C76.595 8.91055 75.3795 7.69501 73.88 7.69501C72.3806 7.69501 71.165 8.91055 71.165 10.41C71.165 11.9095 72.3806 13.125 73.88 13.125Z" fill="#FDF6E9"/>
<path d="M67.4601 28.41C70.2022 28.41 72.4251 26.1871 72.4251 23.445C72.4251 20.7029 70.2022 18.48 67.4601 18.48C64.718 18.48 62.4951 20.7029 62.4951 23.445C62.4951 26.1871 64.718 28.41 67.4601 28.41Z" fill="#FDF6E9"/>
<path d="M92 14.625V27.015C90.95 27.63 89.735 27.975 88.43 27.975C84.485 27.975 81.29 24.78 81.29 20.835C81.29 16.89 84.485 13.68 88.43 13.68C89.735 13.68 90.95 14.025 92 14.64V14.625Z" fill="#FDF6E9"/>
<path d="M86.24 2.88C87.83 2.88 89.12 4.17 89.12 5.76V29.76C89.12 31.35 87.83 32.64 86.24 32.64H49.76C48.17 32.64 46.88 31.35 46.88 29.76V5.76C46.88 4.17 48.17 2.88 49.76 2.88H86.24ZM86.24 0H49.76C46.58 0 44 2.58 44 5.76V29.76C44 32.94 46.58 35.52 49.76 35.52H86.24C89.42 35.52 92 32.94 92 29.76V5.76C92 2.58 89.42 0 86.24 0Z" fill="#121212"/>
</g>
<g clip-path="url(#clip1_8_488)">
<path d="M38 25.62V34.92C38 36.7 37.43 38.35 36.45 39.68C35.92 40.41 35.26 41.05 34.52 41.56C33.21 42.47 31.63 43 29.92 43H8.09C3.62 43 0 39.38 0 34.92V25.62C0 23.43 0.87 21.45 2.28 20C2.67 19.6 3.09 19.24 3.55 18.93C4.85 18.05 6.41 17.54 8.09 17.54H29.92C30.3 17.54 30.68 17.57 31.05 17.62C32.87 17.87 34.49 18.73 35.72 19.99C37.13 21.44 38 23.43 38 25.62Z" fill="#FFDF80"/>
<path d="M36.4501 31.09V39.68C35.9201 40.41 35.2601 41.05 34.5201 41.56H26.8101V31.09H36.4501Z" fill="#F49453"/>
<path d="M38 22.1V32.17C38 33.86 37.08 35.33 35.72 36.12C35.05 36.51 34.27 36.73 33.44 36.73H4.56C3.73 36.73 2.95 36.51 2.28 36.11C0.92 35.33 0 33.86 0 32.17V22.1C0 20.41 0.92 18.94 2.28 18.16C2.32 18.13 2.37 18.1 2.41 18.08C3.06 17.74 3.79 17.54 4.56 17.54H33.44C34.27 17.54 35.05 17.76 35.72 18.15C37.08 18.94 38 20.41 38 22.1Z" fill="#F49453"/>
<path d="M35.72 18.15C35.05 17.76 34.27 17.54 33.44 17.54H4.56C3.79 17.54 3.06 17.74 2.41 18.08C2.37 18.1 2.32 18.13 2.28 18.16C0.92 18.94 0 20.41 0 22.1V38.44C0 40.96 2.05 43 4.56 43H33.44C35.96 43 38 40.96 38 38.44V22.1C38 20.41 37.08 18.94 35.72 18.15ZM4.56 40.72C3.31 40.72 2.28 39.7 2.28 38.44V22.1C2.28 20.84 3.31 19.82 4.56 19.82H33.44C34.7 19.82 35.72 20.84 35.72 22.1V38.44C35.72 39.7 34.7 40.72 33.44 40.72H4.56Z" fill="#121212"/>
<path d="M38 11.91V26.21C38 26.27 38 26.33 37.99 26.39C37.95 28.35 37.08 30.11 35.72 31.33C34.5 32.44 32.87 33.12 31.09 33.12H6.92C5.13 33.12 3.51 32.44 2.28 31.32C0.88 30.07 0 28.24 0 26.21V11.91C0 8.1 3.1 5 6.92 5H31.09C34.91 5 38 8.1 38 11.91Z" fill="#4DCA59"/>
<path d="M38.0001 11.91V26.21C38.0001 26.27 38.0001 26.33 37.9901 26.39C37.9501 28.35 37.0801 30.11 35.7201 31.33C34.5001 32.44 32.8701 33.12 31.0901 33.12H26.8101V5H31.0901C34.9101 5 38.0001 8.1 38.0001 11.91Z" fill="#39773E"/>
<path d="M7.32977 19.98C11.3725 19.98 14.6498 16.7028 14.6498 12.66C14.6498 8.6173 11.3725 5.34003 7.32977 5.34003C3.28704 5.34003 0.00976562 8.6173 0.00976562 12.66C0.00976562 16.7028 3.28704 19.98 7.32977 19.98Z" fill="#FDF6E9"/>
<path d="M23.6598 15.39C24.8472 15.39 25.8098 14.4274 25.8098 13.24C25.8098 12.0526 24.8472 11.09 23.6598 11.09C22.4724 11.09 21.5098 12.0526 21.5098 13.24C21.5098 14.4274 22.4724 15.39 23.6598 15.39Z" fill="#FDF6E9"/>
<path d="M18.5799 27.49C20.7504 27.49 22.5099 25.7305 22.5099 23.56C22.5099 21.3895 20.7504 19.63 18.5799 19.63C16.4094 19.63 14.6499 21.3895 14.6499 23.56C14.6499 25.7305 16.4094 27.49 18.5799 27.49Z" fill="#FDF6E9"/>
<path d="M38 16.58V26.38C38 26.38 37.99 26.38 37.99 26.39C37.32 26.78 36.55 27.03 35.72 27.11C35.54 27.13 35.36 27.14 35.18 27.14C32.06 27.14 29.52 24.6 29.52 21.48C29.52 20.9 29.61 20.34 29.76 19.82C30.02 18.99 30.46 18.23 31.05 17.62C31.07 17.59 31.1 17.56 31.12 17.54C32.15 16.48 33.59 15.82 35.18 15.82C35.36 15.82 35.54 15.82 35.72 15.85C36.55 15.92 37.33 16.18 38 16.58Z" fill="#FDF6E9" fill-opacity="0.5"/>
<path d="M33.44 5H4.56C2.05 5 0 7.04 0 9.56V28.56C0 30.25 0.92 31.72 2.28 32.5C2.95 32.9 3.73 33.12 4.56 33.12H33.44C34.27 33.12 35.05 32.9 35.72 32.51C37.08 31.72 38 30.25 38 28.56V9.56C38 7.04 35.96 5 33.44 5ZM35.72 28.56C35.72 29.82 34.7 30.84 33.44 30.84H4.56C3.31 30.84 2.28 29.82 2.28 28.56V9.56C2.28 8.3 3.31 7.28 4.56 7.28H33.44C34.7 7.28 35.72 8.3 35.72 9.56V28.56Z" fill="#121212"/>
</g>
<g clip-path="url(#clip2_8_488)">
<path d="M136 25.62V34.92C136 36.7 135.43 38.35 134.45 39.68C133.92 40.41 133.26 41.05 132.52 41.56C131.21 42.47 129.63 43 127.92 43H106.09C101.62 43 98 39.38 98 34.92V25.62C98 23.43 98.87 21.45 100.28 20C100.67 19.6 101.09 19.24 101.55 18.93C102.85 18.05 104.41 17.54 106.09 17.54H127.92C128.3 17.54 128.68 17.57 129.05 17.62C130.87 17.87 132.49 18.73 133.72 19.99C135.13 21.44 136 23.43 136 25.62Z" fill="#FFDF80"/>
<path d="M99.5498 31.09V39.68C100.08 40.41 100.74 41.05 101.48 41.56H109.19V31.09H99.5498Z" fill="#F49453"/>
<path d="M136 22.1V32.17C136 33.86 135.08 35.33 133.72 36.12C133.05 36.51 132.27 36.73 131.44 36.73H102.56C101.73 36.73 100.95 36.51 100.28 36.11C98.92 35.33 98 33.86 98 32.17V22.1C98 20.41 98.92 18.94 100.28 18.16C100.32 18.13 100.37 18.1 100.41 18.08C101.06 17.74 101.79 17.54 102.56 17.54H131.44C132.27 17.54 133.05 17.76 133.72 18.15C135.08 18.94 136 20.41 136 22.1Z" fill="#F49453"/>
<path d="M133.72 18.15C133.05 17.76 132.27 17.54 131.44 17.54H102.56C101.79 17.54 101.06 17.74 100.41 18.08C100.37 18.1 100.32 18.13 100.28 18.16C98.92 18.94 98 20.41 98 22.1V38.44C98 40.96 100.05 43 102.56 43H131.44C133.96 43 136 40.96 136 38.44V22.1C136 20.41 135.08 18.94 133.72 18.15ZM102.56 40.72C101.31 40.72 100.28 39.7 100.28 38.44V22.1C100.28 20.84 101.31 19.82 102.56 19.82H131.44C132.7 19.82 133.72 20.84 133.72 22.1V38.44C133.72 39.7 132.7 40.72 131.44 40.72H102.56Z" fill="#121212"/>
<path d="M136 11.91V26.21C136 26.27 136 26.33 135.99 26.39C135.95 28.35 135.08 30.11 133.72 31.33C132.5 32.44 130.87 33.12 129.09 33.12H104.92C103.13 33.12 101.51 32.44 100.28 31.32C98.88 30.07 98 28.24 98 26.21V11.91C98 8.1 101.1 5 104.92 5H129.09C132.91 5 136 8.1 136 11.91Z" fill="#609EE8"/>
<path d="M98 11.91V26.21C98 26.27 98 26.33 98.01 26.39C98.05 28.35 98.92 30.11 100.28 31.33C101.5 32.44 103.13 33.12 104.91 33.12H109.19V5H104.91C101.09 5 98 8.1 98 11.91Z" fill="#4A6F93"/>
<path opacity="0.5" d="M105.33 19.98C109.372 19.98 112.65 16.7028 112.65 12.66C112.65 8.6173 109.372 5.34003 105.33 5.34003C101.287 5.34003 98.0098 8.6173 98.0098 12.66C98.0098 16.7028 101.287 19.98 105.33 19.98Z" fill="#FDF6E9"/>
<path d="M121.66 15.39C122.847 15.39 123.81 14.4274 123.81 13.24C123.81 12.0526 122.847 11.09 121.66 11.09C120.472 11.09 119.51 12.0526 119.51 13.24C119.51 14.4274 120.472 15.39 121.66 15.39Z" fill="#FDF6E9"/>
<path d="M116.58 27.49C118.75 27.49 120.51 25.7305 120.51 23.56C120.51 21.3895 118.75 19.63 116.58 19.63C114.409 19.63 112.65 21.3895 112.65 23.56C112.65 25.7305 114.409 27.49 116.58 27.49Z" fill="#FDF6E9"/>
<path d="M136 16.58V26.38C136 26.38 135.99 26.38 135.99 26.39C135.32 26.78 134.55 27.03 133.72 27.11C133.54 27.13 133.36 27.14 133.18 27.14C130.06 27.14 127.52 24.6 127.52 21.48C127.52 20.9 127.61 20.34 127.76 19.82C128.02 18.99 128.46 18.23 129.05 17.62C129.07 17.59 129.1 17.56 129.12 17.54C130.15 16.48 131.59 15.82 133.18 15.82C133.36 15.82 133.54 15.82 133.72 15.85C134.55 15.92 135.33 16.18 136 16.58Z" fill="#FDF6E9"/>
<path d="M131.44 5H102.56C100.05 5 98 7.04 98 9.56V28.56C98 30.25 98.92 31.72 100.28 32.5C100.95 32.9 101.73 33.12 102.56 33.12H131.44C132.27 33.12 133.05 32.9 133.72 32.51C135.08 31.72 136 30.25 136 28.56V9.56C136 7.04 133.96 5 131.44 5ZM133.72 28.56C133.72 29.82 132.7 30.84 131.44 30.84H102.56C101.31 30.84 100.28 29.82 100.28 28.56V9.56C100.28 8.3 101.31 7.28 102.56 7.28H131.44C132.7 7.28 133.72 8.3 133.72 9.56V28.56Z" fill="#121212"/>
</g>
<defs>
<clipPath id="clip0_8_488">
<rect width="48" height="48" fill="white" transform="translate(44)"/>
</clipPath>
<clipPath id="clip1_8_488">
<rect width="38" height="38" fill="white" transform="translate(0 5)"/>
</clipPath>
<clipPath id="clip2_8_488">
<rect width="38" height="38" fill="white" transform="translate(98 5)"/>
</clipPath>
</defs>
</svg>
