<?xml version="1.0" encoding="utf-8"?>
<!-- Generator: Adobe Illustrator 27.7.0, SVG Export Plug-In . SVG Version: 6.00 Build 0)  -->
<svg version="1.1" id="레이어_1" xmlns="http://www.w3.org/2000/svg" xmlns:xlink="http://www.w3.org/1999/xlink" x="0px"
	 y="0px" viewBox="0 0 101.3 32.8" style="enable-background:new 0 0 101.3 32.8;" xml:space="preserve">
<style type="text/css">
	.st0{fill:#FFDF80;}
	.st1{fill:#F49453;}
	.st2{fill:#55292A;}
	.st3{fill:#FF7417;}
	.st4{fill:#FDF6E9;}
</style>
<g>
	<path class="st0" d="M27.5,32.5H6.3c-3,0-5.4-2.4-5.4-5.4V16.5c0-3,2.4-5.4,5.4-5.4h21.2c3,0,5.4,2.4,5.4,5.4v10.6
		C32.9,30.1,30.5,32.5,27.5,32.5z"/>
	<path class="st1" d="M32.9,14.9v8.5c0,2.1-1.7,3.8-3.8,3.8H4.7c-2.1,0-3.8-1.7-3.8-3.8v-8.5c0-2.1,1.7-3.8,3.8-3.8H29
		C31.2,11.1,32.9,12.8,32.9,14.9z"/>
	<path class="st2" d="M29,13c1.1,0,1.9,0.9,1.9,1.9v13.8c0,1.1-0.9,1.9-1.9,1.9H4.7c-1.1,0-1.9-0.9-1.9-1.9V14.9
		c0-1.1,0.9-1.9,1.9-1.9H29 M29,11.1H4.7c-2.1,0-3.8,1.7-3.8,3.8v13.8c0,2.1,1.7,3.8,3.8,3.8H29c2.1,0,3.8-1.7,3.8-3.8V14.9
		C32.9,12.8,31.2,11.1,29,11.1L29,11.1z"/>
	<path class="st3" d="M27.8,24.2H6c-2.8,0-5.1-2.3-5.1-5.1V5.6c0-2.8,2.3-5.1,5.1-5.1h21.7c2.8,0,5.1,2.3,5.1,5.1V19
		C32.9,21.9,30.6,24.2,27.8,24.2z"/>
	<circle class="st4" cx="7.1" cy="6.9" r="6.2"/>
	<circle class="st4" cx="20.8" cy="7.4" r="1.8"/>
	<circle class="st4" cx="16.5" cy="16.1" r="3.3"/>
	<path class="st4" d="M32.9,10.2v8.3c-0.7,0.4-1.5,0.6-2.4,0.6c-2.6,0-4.8-2.1-4.8-4.8c0-2.6,2.1-4.8,4.8-4.8
		C31.4,9.6,32.2,9.8,32.9,10.2z"/>
	<path class="st2" d="M29,2.4c1.1,0,1.9,0.9,1.9,1.9v16c0,1.1-0.9,1.9-1.9,1.9H4.7c-1.1,0-1.9-0.9-1.9-1.9v-16
		c0-1.1,0.9-1.9,1.9-1.9H29 M29,0.5H4.7c-2.1,0-3.8,1.7-3.8,3.8v16c0,2.1,1.7,3.8,3.8,3.8H29c2.1,0,3.8-1.7,3.8-3.8v-16
		C32.9,2.2,31.2,0.5,29,0.5L29,0.5z"/>
</g>
<g>
	<path class="st2" d="M43.8,9.7v1.6c1-1.3,2.1-1.9,3.6-1.9c0.9,0,1.6,0.2,2.4,0.6s1.3,0.9,1.8,1.6c0.5-0.6,1.2-1.2,1.9-1.6
		c0.7-0.4,1.5-0.6,2.3-0.6c1.9,0,3.3,0.5,4.1,1.6c0.8,1.1,1.2,2.7,1.2,4.8v15.1h-4.6v-15c0-0.7-0.2-1.3-0.5-1.7
		c-0.4-0.4-0.8-0.6-1.4-0.6c-0.6,0-1,0.2-1.4,0.6c-0.4,0.4-0.5,0.9-0.5,1.7v15h-4.6v-15c0-0.7-0.2-1.3-0.5-1.7
		c-0.4-0.4-0.8-0.6-1.4-0.6c-0.6,0-1.1,0.2-1.4,0.6S44,15,44,15.8v15h-4.6V9.7H43.8z"/>
	<path class="st2" d="M63.8,24.7v-0.2h4.5v0.2c0,0.8,0.2,1.4,0.6,1.9c0.4,0.4,1,0.7,1.7,0.7c0.7,0,1.2-0.2,1.6-0.6
		c0.4-0.4,0.5-1,0.5-1.7c0-0.6-0.2-1-0.5-1.5c-0.3-0.4-0.9-0.8-1.6-1.1l-2.4-1c-1.6-0.7-2.7-1.5-3.4-2.4c-0.6-0.9-0.9-2.1-0.9-3.5
		c0-1.7,0.6-3.2,1.8-4.3c1.2-1.1,2.8-1.7,4.7-1.7s3.5,0.6,4.7,1.7c1.2,1.1,1.8,2.6,1.8,4.5V16h-4.5v-0.2c0-0.8-0.2-1.5-0.6-1.9
		c-0.4-0.4-0.9-0.6-1.5-0.6c-0.6,0-1.1,0.2-1.5,0.5c-0.4,0.3-0.5,0.8-0.5,1.5c0,0.6,0.1,1,0.4,1.4c0.3,0.4,0.8,0.7,1.5,1l2.6,1.1
		c1.5,0.7,2.6,1.5,3.3,2.4c0.7,0.9,1,2.2,1,3.7c0,1.8-0.6,3.3-1.8,4.5c-1.2,1.2-2.8,1.7-4.9,1.7c-2.1,0-3.7-0.6-4.9-1.7
		C64.4,28.3,63.8,26.7,63.8,24.7z"/>
	<path class="st2" d="M84.7,3.2v3.9h-4.6V3.2H84.7z M84.7,9.7v21.1h-4.6V9.7H84.7z"/>
	<path class="st2" d="M92.6,9.7v1.6c1-1.3,2.2-1.9,3.5-1.9c3.4,0,5.2,2.1,5.2,6.4v15.1h-4.6v-15c0-0.7-0.2-1.3-0.5-1.7
		c-0.4-0.4-0.8-0.6-1.4-0.6c-0.6,0-1.1,0.2-1.4,0.6s-0.5,0.9-0.5,1.7v15h-4.6V9.7H92.6z"/>
</g>
</svg>
